<svg xmlns="http://www.w3.org/2000/svg" viewBox="0 0 24 24" fill="#21759B"><path d="M12 2C6.486 2 2 6.486 2 12s4.486 10 10 10 10-4.486 10-10S17.514 2 12 2zM3.443 12c0-.805.122-1.582.348-2.316l3.84 10.518C5.028 18.82 3.443 15.562 3.443 12zm8.557 8.557c-.805 0-1.582-.122-2.316-.348l2.462-6.748 2.522 6.906c.016.043.033.085.051.127a8.45 8.45 0 0 1-2.719.063zM4.71 7.348l4.135 11.338c.025.068.052.135.08.201 2.534-2.534 4.285-5.875 4.285-9.887 0-.805-.122-1.582-.348-2.316L4.71 7.348zm13.29 4.652c0 3.012-1.751 6.353-4.285 8.887.028-.066.055-.133.08-.201l4.135-11.338A8.45 8.45 0 0 1 18 12zM12 4.443c.805 0 1.582.122 2.316.348L9.854 11.539l-2.522-6.906A8.45 8.45 0 0 1 12 4.443zm5.29 2.105l-4.135 11.338c2.534-2.534 4.285-5.875 4.285-9.887 0-.805-.122-1.582-.348-2.316L17.29 6.548z"/></svg>
